<svg xmlns="http://www.w3.org/2000/svg" version="1.1" xmlns:xlink="http://www.w3.org/1999/xlink" preserveAspectRatio="none" x="0px" y="0px" width="250px" height="226px" viewBox="0 0 250 226">
                    <g transform="matrix( 0.8719940185546875, 0, 0, 0.8719940185546875, -114.7,-61.1) ">
                        <path fill="#000000" stroke="none" d="
M 333.85 124.35
L 333.85 88.35
Q 330.05 87.85 322.45 87.35 312.55 86.75 302.8 86.75 279.2 86.75 265.35 100.45 251 114.65 251 140
L 251 169.7 216.2 169.7 216.2 209.95 251 209.95 251 313.3 292.6 313.3 292.6 209.95 327.25 209.95 332.45 169.7 292.6 169.7 292.6 143.95
Q 292.6 134.2 296.3 129.8 300.85 124.35 312.55 124.35
L 333.85 124.35 Z" />
                    </g>
</svg>