<svg xmlns="http://www.w3.org/2000/svg"
     version="1.1" 
     xmlns:xlink="http://www.w3.org/1999/xlink" 
     preserveAspectRatio="none" 
     x="0px" 
     y="0px" 
     width="23px" 
     height="22px" 
     viewBox="0 0 23 22">

        <path   fill="#ffffff"
                stroke="none" 
                d="
        M 13.5 9.55
        L 9.8 9.55 9.8 13.25 13.5 13.25 13.5 9.55
        M 3.7 22.85
        L 3.7 19.15 0 19.15 0 22.85 3.7 22.85
        M 9.8 19.15
        L 9.8 22.85 13.5 22.85 13.5 19.15 9.8 19.15
        M 3.7 0
        L 0 0 0 3.7 3.7 3.7 3.7 0
        M 3.7 9.55
        L 0 9.55 0 13.25 3.7 13.25 3.7 9.55
        M 13.5 3.7
        L 13.5 0 9.8 0 9.8 3.7 13.5 3.7
        M 23.35 13.25
        L 23.35 9.55 19.65 9.55 19.65 13.25 23.35 13.25
        M 23.35 22.85
        L 23.35 19.15 19.65 19.15 19.65 22.85 23.35 22.85
        M 23.35 3.7
        L 23.35 0 19.65 0 19.65 3.7 23.35 3.7 Z" />
</svg>
