<svg xmlns="http://www.w3.org/2000/svg" version="1.1" xmlns:xlink="http://www.w3.org/1999/xlink" preserveAspectRatio="none" x="0px" y="0px" width="250px" height="226px" viewBox="0 0 250 226">
                    <g transform="matrix( 0.8719940185546875, 0, 0, 0.8719940185546875, -437.35,-50.9) ">
                        <path fill="#000000" stroke="none" d="
M 713.8 91.1
Q 703.95 86.75 693.05 86.75 671.8 86.75 656.8 101.75 641.75 116.8 641.75 138 641.75 144.1 643.1 149.7 611.65 148.15 583.75 133.75 556.65 119.8 537.4 96.15 530.45 107.95 530.45 121.9 530.45 135.05 536.7 146.5 542.75 157.55 553.25 164.6 540.9 164.25 530 158.2
L 530 158.85
Q 530 177.35 541.8 191.55 553.4 205.55 571.15 209.15 564.4 210.95 557.65 210.95 552.9 210.95 548 210 552.95 225.45 566 235.3 579.25 245.3 595.9 245.65 582.5 256.15 566.5 261.8 549.95 267.6 532.2 267.6 526.2 267.6 520 266.9 537.35 278 556.95 283.85 577.25 289.9 598.6 289.9 632.55 289.9 661.2 276.65 687.45 264.5 706.95 242.35 725.15 221.75 735 195.4 744.55 169.9 744.55 144 744.55 140.65 744.4 137.35 759.5 126.4 770 110.8 755.95 117 740.5 118.85 748.5 114.05 754.35 106.8 760.2 99.4 763.05 90.5 747.7 99.55 730.5 102.95 723.35 95.3 713.8 91.1 Z" />
                    </g>
</svg>