<img src="common/media/images/logo.jpg" alt="" style="position: absolute; width: 100%;/>
<svg xmlns="http://www.w3.org/2000/svg" viewBox="0 0 400 421.19"><title>Asset 1</title><g id="Layer_2" data-name="Layer 2"><g id="Layer_1-2" data-name="Layer 1"><polygon points="200 0 0 72.79 20.61 80.29 200 15 400 87.79 400 72.79 200 0"/><polygon points="379.39 91.79 352.61 101.54 200 46 63.19 95.79 83.8 103.29 200 61 400 133.79 400 118.79 373.21 109.04 400 99.29 379.39 91.79"/><polygon points="200 406.19 0 333.39 0 348.39 200 421.19 400 348.39 379.39 340.89 200 406.19"/><polygon points="20.61 329.39 47.3 319.68 200 375.26 200 375.26 336.9 325.43 316.3 317.93 200 360.26 200 360.26 0 287.46 0 302.46 26.69 312.18 0 321.89 20.61 329.39"/><polygon points="20.61 283.46 47.48 273.68 89.97 289.15 63.1 298.93 83.7 306.43 110.58 296.65 200 329.19 200 329.19 273.62 302.4 253.02 294.9 200 314.19 200 314.19 0 241.4 0 256.4 26.87 266.18 0 275.96 20.61 283.46"/><polygon points="379.39 137.79 352.61 147.54 310.02 132.04 336.81 122.29 316.2 114.79 289.42 124.54 200 92 126.38 118.79 146.99 126.29 200 107 400 179.79 400 164.79 373.21 155.04 400 145.29 379.39 137.79"/><polygon points="379.39 248.9 352.52 258.68 283.69 233.63 310.56 223.85 289.95 216.35 263.08 226.13 220.5 210.63 247.37 200.85 226.76 193.35 200 203.09 200 203.09 0 130.29 0 145.29 26.79 155.04 0 164.79 20.61 172.29 47.4 162.54 116.23 187.6 89.44 197.35 110.05 204.85 136.83 195.1 179.5 210.63 152.72 220.38 173.32 227.88 200 218.17 200 218.17 400 290.96 400 275.96 373.13 266.18 400 256.4 379.39 248.9"/><polygon points="379.39 294.96 352.7 304.68 310.03 289.15 336.72 279.43 316.12 271.93 289.42 281.65 220.59 256.59 247.28 246.88 226.68 239.38 200 249.09 200 249.09 0 176.29 0 191.29 53.04 210.6 0 229.9 20.61 237.4 73.64 218.1 116.31 233.63 63.28 252.93 83.88 260.43 136.92 241.13 179.41 256.59 126.38 275.9 146.98 283.4 200 264.1 400 336.89 400 321.89 373.31 312.18 400 302.46 379.39 294.96"/><polygon points="379.39 183.79 326.36 203.1 283.77 187.6 336.81 168.29 316.2 160.79 263.17 180.1 220.58 164.6 273.62 145.29 253.01 137.79 200 157.09 200 157.09 0 84.29 0 99.29 26.79 109.04 0 118.79 20.61 126.29 47.4 116.54 89.98 132.04 63.19 141.79 83.8 149.29 110.59 139.54 179.42 164.6 152.63 174.35 173.24 181.85 200 172.11 200 172.11 400 244.9 400 229.9 346.96 210.6 400 191.29 379.39 183.79"/></g></g></svg>